<?xml version="1.0" standalone="no"?>
<!DOCTYPE svg PUBLIC "-//W3C//DTD SVG 20010904//EN"
 "http://www.w3.org/TR/2001/REC-SVG-20010904/DTD/svg10.dtd">
<svg version="1.0" xmlns="http://www.w3.org/2000/svg"
 width="100.000000pt" height="100.000000pt" viewBox="0 0 100.000000 100.000000"
 preserveAspectRatio="xMidYMid meet">
<metadata>
Created by potrace 1.14, written by Peter Selinger 2001-2017
</metadata>
<g transform="translate(0.000000,100.000000) scale(0.100000,-0.100000)"
fill="#000000" stroke="none">
<path d="M80 903 c-36 -19 -84 -79 -74 -94 3 -5 56 -9 118 -9 106 0 114 -1
157 -29 l46 -28 83 33 c46 19 89 34 95 34 6 0 46 -15 90 -34 l80 -33 40 26
c36 23 52 26 163 31 l122 5 -17 34 c-10 19 -31 44 -46 55 -27 20 -42 21 -425
24 -363 2 -400 1 -432 -15z"/>
<path d="M385 728 l-120 -47 -3 -62 c-7 -148 54 -278 175 -373 63 -50 64 -50
137 7 82 65 144 169 160 272 9 53 10 145 2 152 -3 4 -57 27 -119 53 l-112 45
-120 -47z"/>
<path d="M1 634 l0 -124 37 -1 c37 -1 156 -1 179 0 9 1 13 22 12 74 -3 122 -2
126 28 133 l26 7 -34 18 c-27 14 -57 18 -141 18 l-106 0 -1 -125z"/>
<path d="M747 741 l-28 -19 24 -6 c30 -7 36 -33 31 -133 -2 -52 0 -73 9 -74 7
-1 57 -1 112 -2 l100 0 3 126 3 127 -113 -1 c-91 0 -119 -4 -141 -18z"/>
<path d="M0 349 l0 -117 111 -1 c108 -2 111 -1 162 30 66 40 63 36 44 56 -8
10 -29 47 -46 83 l-31 65 -120 1 -120 0 0 -117z"/>
<path d="M763 463 c-7 -3 -13 -10 -13 -16 0 -13 -37 -89 -63 -127 l-17 -26 56
-32 c53 -31 60 -32 165 -32 l109 0 0 118 0 117 -112 1 c-62 1 -119 0 -125 -3z"/>
<path d="M300 227 c-52 -30 -62 -32 -178 -37 l-122 -5 17 -35 c10 -19 33 -45
52 -57 34 -23 35 -23 430 -23 378 0 398 1 429 20 29 18 72 73 72 93 0 4 -52 7
-116 7 -114 0 -116 0 -175 35 -68 40 -72 41 -89 20 -6 -8 -36 -30 -66 -50 -61
-40 -59 -41 -150 32 -23 18 -43 33 -45 33 -2 0 -29 -15 -59 -33z"/>
</g>
</svg>
